<svg xmlns="http://www.w3.org/2000/svg" xmlns:xlink="http://www.w3.org/1999/xlink" version="1.1" id="Layer_1" x="0px" y="0px" viewBox="0 0 1080 1080" style="enable-background:new 0 0 1080 1080;" xml:space="preserve">
<style xmlns="http://www.w3.org/2000/svg" type="text/css">
	.st0{fill:none;stroke:#D3D3D3;stroke-miterlimit:10;stroke-dasharray:12.1401,12.1401;}
	.st1{fill:#F9F9F9;}
	.st2{fill:#DCF2FF;}
	.st3{fill:#F2F2F2;}
	.st4{fill:#FFD7B6;}
	.st5{fill:#2A94F4;}
	.st6{fill:none;stroke:#096CB5;stroke-width:3;stroke-miterlimit:10;}
	.st7{fill:#096CB5;}
	.st8{fill:none;stroke:#2A94F4;stroke-width:3;stroke-miterlimit:10;}
	.st9{fill:#0E538C;}
	.st10{fill:#69d30b;}
	.st11{fill:#F9C7A2;}
	.st12{fill:#1C85D3;}
	.st13{fill:#3CA8F7;}
	.st14{fill:#FFE3CA;}
	.st15{fill:#FFAC33;}
</style>
<g xmlns="http://www.w3.org/2000/svg">
	<circle class="st0" cx="904.7" cy="253.5" r="123.7"/>
</g>
<g xmlns="http://www.w3.org/2000/svg">
	<path class="st1" d="M518.9,271.1c-19.7,10.5-39.2,23.3-53,43.3c-13.8,20.1-20.7,48.9-12.4,73.1c11,32.3,46,51,46.1,86   c0.1,25-18.8,44.1-38,53.2c-19.1,9.1-40.3,12.4-57.7,25.7c-26.3,20.1-38.6,58.9-43.6,96.2c-5.2,38.7-3.1,82.7,19.4,110.8   c27.9,34.9,74.1,31,113.6,23.5c52.8-9.9,105.3-21.6,157.8-33.3c115.1-25.6,230.2-51.1,345.4-76.7c12.3-2.7,25.2-5.7,35.2-14.9   c19.9-18.2,21.6-55.9,10-82.8c-11.6-26.9-33-45.2-54.3-61c-21.3-15.8-43.7-30.8-59.7-54.1c-15.9-23.3-23.9-57.9-11.8-84.5   c10.2-22.5,32.2-34.5,41.7-57.5c12.6-30.2-1.9-68.8-24.8-88.1S622.9,215.8,518.9,271.1z"/>
</g>
<g xmlns="http://www.w3.org/2000/svg">
	<path class="st2" d="M40,432.9c0-41.8,14.2-76.8,42.6-104.8s65.8-42,112.2-42c46.7,0,84.3,14,113,42c28.7,28,43.1,62.9,43.1,104.8   c0,41.3-14.4,75.8-43.1,103.5c-28.7,27.7-66.4,41.6-113,41.6c-46.4,0-83.8-13.9-112.2-41.6C54.2,508.7,40,474.2,40,432.9z    M136.3,874.1l370.3-579.4h84.8L220.7,874.1H136.3z M146.1,432.9c0,17.8,4.5,31.1,13.6,39.9c9,8.8,20.8,13.1,35.2,13.1   c15,0,27.1-4.4,36.3-13.1c9.2-8.8,13.8-22.1,13.8-39.9c0-18.7-4.6-32.4-13.8-41.4c-9.2-8.9-21.3-13.4-36.3-13.4   c-14.4,0-26.2,4.5-35.2,13.6C150.6,400.8,146.1,414.6,146.1,432.9z M376.4,739.6c0-41.8,14.1-76.8,42.4-105   c28.3-28.1,65.6-42.2,112-42.2c46.4,0,83.9,14.1,112.6,42.2c28.7,28.1,43.1,63.1,43.1,105c0,41.3-14.4,75.8-43.1,103.5   c-28.7,27.7-66.2,41.6-112.6,41.6c-46.4,0-83.7-13.9-112-41.6C390.5,815.4,376.4,780.9,376.4,739.6z M481.2,739.6   c0,18.1,4.5,31.4,13.6,39.9c9,8.5,21.1,12.7,36.1,12.7c15,0,27.1-4.2,36.5-12.7c9.3-8.5,14-21.8,14-39.9c0-18.4-4.7-32.1-14-41.1   c-9.3-9-21.5-13.6-36.5-13.6c-15,0-27,4.5-36.1,13.4C485.7,707.2,481.2,721,481.2,739.6z"/>
</g>
<path xmlns="http://www.w3.org/2000/svg" class="st3" d="M1022.5,957.6h-965c-7.2,0-13-5.9-13-13V867c0-7.2,5.9-13,13-13h965c7.2,0,13,5.9,13,13v77.5  C1035.5,951.7,1029.6,957.6,1022.5,957.6z"/>
<g xmlns="http://www.w3.org/2000/svg">
	<path class="st4" d="M826.9,501.6c-0.9,4-1.1,8.3-0.8,12.9c-12.5-3.1-27.3-9.3-45.1-19.4c-6.2-18.5,3-21,3-21l10,3   c11.3,5.8,23.8,12,35.9,16.3C828.5,495.7,827.5,498.5,826.9,501.6z"/>
	<path class="st4" d="M890,474c0,0-1,20.7-15.6,33.4c-0.8,0.7-1.6,1.3-2.4,1.9c-9,6.7-22.5,10.3-42.8,5.8c-0.4-4.6-0.2-8.9,0.6-13   c0.6-3,1.6-5.7,2.9-7.9c11.8,3.9,22.9,5.6,31.7,3c1-0.3,2-0.7,2.9-1.1c7.5-3.4,12.9-10.9,14.7-24.1C888,473,890,474,890,474z"/>
	<path class="st4" d="M882,472c-1-2-3-10-4-13s-2-7-2-7s5,3,5,6c1-8-1-17-1-17s15,13,15,14s2,7-5,19C883,477,882,472,882,472z"/>
	<g>
		<polygon class="st5" points="933.5,601.6 841.4,634.6 799,537.6 904.6,499.7   "/>
		<g>
			<path class="st5" d="M876.7,513c-0.7-2-1.5-3.8-2.3-5.6c-2-4.2-4.4-8-7.1-11.3c-8.1-10-18.7-15-27.6-11.8     c-4.2,1.5-7.5,4.6-9.9,8.9c1,0.4,1.9,0.7,2.9,1c2-3.5,4.8-5.9,8-7.1c1.5-0.5,3.1-0.8,4.7-0.8c6.3,0,13.2,4.1,18.9,10.9     c2.9,3.4,5.5,7.5,7.6,12.1c0.7,1.5,1.3,3.1,1.9,4.7c6.8,18.9,3,37.7-8.5,41.8c-1.5,0.5-3.1,0.8-4.7,0.8     c-10.5,0-22.5-11.2-28.4-27.7c-1.7-4.6-2.7-9.3-3.1-13.8c-1-0.2-2-0.5-3.1-0.7c0.4,5.1,1.5,10.4,3.4,15.6     c6.3,17.7,19.5,29.6,31.4,29.6c1.9,0,3.8-0.3,5.6-1C879.5,554,884.1,533.5,876.7,513z"/>
			<path class="st4" d="M829.8,502.2c-0.9,4-1.1,8.4-0.6,13c-1-0.2-2-0.5-3.1-0.7c-0.3-4.5-0.1-8.8,0.8-12.9c0.7-3.1,1.7-5.9,3-8.3     c1,0.4,1.9,0.7,2.9,1C831.5,496.5,830.5,499.2,829.8,502.2z"/>
		</g>
	</g>
	<g>
		
			<ellipse transform="matrix(0.3835 -0.9235 0.9235 0.3835 -219.3477 979.9915)" class="st6" cx="624.4" cy="654.3" rx="38" ry="23.6"/>
		<polygon class="st7" points="619.2,763.1 550.4,734.6 585.9,634.9 664.7,667.6   "/>
	</g>
	<g>
		<polygon class="st5" points="546.4,733 499.7,675.1 578.6,604.5 632.1,671   "/>
		
			<ellipse transform="matrix(0.7787 -0.6273 0.6273 0.7787 -268.0501 519.9233)" class="st8" cx="603.1" cy="640" rx="38" ry="23.6"/>
	</g>
	<g>
		<g>
			<path class="st9" d="M736,378c-4.5-2.9-28.4,7.8-32.9,10.5c-8.1,4.7-15.3,10.9-21.2,18.1c-12.1,14.9-18.9,34.5-34.7,45.4     c-8.8,6.1-19.4,8.7-28.6,14.2c-12.4,7.4-21.4,19.9-25.6,33.7s-3.6,28.9,0.6,42.7c2.6,8.5,6.7,16.8,13.4,22.7     c6.6,5.8,15,8.9,23.3,11.8c20.1,7.2,40.9,14.4,62.2,12.9c6-0.4,12.1-1.6,17.1-4.8c3.2-2,5.8-4.7,8.3-7.5     c5-5.7,9.4-12.2,11.4-19.5c2-7.3,1.7-14.9,1.7-22.5c0.1-23.6,4.1-48.4,18.6-67c5.1-6.5,11.3-12.2,15.1-19.5     c5.9-11.7,4.3-26.2-2.3-37.5c-6.6-11.3-5.4-25.6-17.4-30.8c-7.6-3.3-29.2,0.8-36.1,5.4"/>
		</g>
		<g>
			<path class="st4" d="M794.3,597c13,21.3,52.5,244.9,59.1,260c-16.8,5.2-16.8,5.2-16.8,5.2s-39.7-99.3-40.3-139.9     c-14.4-42.8-57.1-135.9-57.1-135.9l26.2-18.1L794.3,597z"/>
			<path class="st10" d="M853.8,856.8c6,10.7,28.5,36.1,48.4,38.1c8,0.8-3.5,8.7-21.9,5.1c-11.3-2.2-21.6-8.3-29.3-16.9l-3.5-3.9     l-1.8,17.9l-5-0.5l-4.5-34.6L853.8,856.8z"/>
			<polygon class="st10" points="854.5,858 852.5,849.6 846,854 849.8,866.4    "/>
		</g>
		<g>
			<g>
				<path class="st11" d="M789.4,651.8c-2.7,12-31,75.3-72.6,119.1c-44.7,39.9-82.9,78.1-85.9,85.9c-15.7-8-16.6-11.6-16.6-11.6      s61-72.7,88.9-102.2c19.6-40.7,54-137.2,54-137.2l31.4,5.3L789.4,651.8z"/>
			</g>
			<g>
				<path class="st10" d="M639.7,842.8c-5.2,11-11.9,40.3-1.9,57.6c4,7-9.1,2.3-17-14.8c-4.8-10.5-6.7-18.5-4.2-29.7l1.1-5.1      l-15.6,8.9l-2.5-4.3l25.5-23.8L639.7,842.8z"/>
				<polygon class="st10" points="636.3,850.6 647.9,839.9 637.5,834.8 629.5,845.1     "/>
			</g>
		</g>
		<path class="st12" d="M722.3,468.6c1.9,11.9,44.9,29,47.5,34.8c7.7,2.1,23.9-26.6,23.9-26.6s-32-23.3-46.1-21    C733.4,458.2,722.3,468.6,722.3,468.6z"/>
		<path class="st4" d="M643.4,606.4c-7,1.8-19.4,7.6-19.4,7.6l1,13l10.8-2c0,0-7.4,5.9-5.9,10.7c1.6-1.6,23-14.2,22.8-22.7    C652.6,604.4,643.4,606.4,643.4,606.4z"/>
		<path class="st5" d="M787,581l-43,11l-19.7-71.8l-9.8-59c2.3-4.4,4.7-7.8,7.3-8.9c0,0,0.1,0,0.1,0c4-1.8,9.3-3.7,15-4.5    c0,0,41.2,34.3,45.2,41.4s5,13-0.6,31.9C779.5,527.4,787,581,787,581z"/>
		<path class="st4" d="M694.4,495.6c-10.4,19.8-49,92.6-51.5,113.8c8.6,5.9,8.6,5.9,8.6,5.9s37.7-86.7,58.9-104.1    C712.7,494,694.4,495.6,694.4,495.6z"/>
		<path class="st13" d="M713.1,519.3c0,0-1.8-1.1-4.4-2.9c-7.8-5.2-23.1-16.3-21.3-22c4.6-1.8,17.9-25.5,29.3-37.3    c3.5-3.6,6.8-6,9.6-6.4c0,0,0.1,0,0.1,0c0,0,7.6,9,9.4,23.2C737.6,488.2,713.1,519.3,713.1,519.3z"/>
		<g>
			<path class="st4" d="M741.9,437.2c-0.1,9,2.6,16.8,2.6,16.8l0,6.2c0,0-12.3-4-14-7.9c-1.7-3.9-1.4-24.2-1.4-24.2l10.5,5.5     L741.9,437.2z"/>
			
				<ellipse transform="matrix(6.299569e-03 -1 1 6.299569e-03 321.216 1154.698)" class="st14" cx="741.6" cy="415.7" rx="23" ry="18.4"/>
			<g>
				<path class="st9" d="M761,397c-10,14-24.8,6.9-32.8,39.7c-14.4-0.1-24.9-18.8-24.8-34.5c0.1-15.7,18.1-25.3,32.6-25.2      C750.4,377.1,761.1,381.3,761,397z"/>
				<path class="st9" d="M742.5,404c-5.5,3.9-13.4,24.1-22.8,19.4c-9.3-4.7-15.5-22.7-15.5-22.7l19.6-8.5l13.3-3l5.4,7.1L742.5,404z      "/>
			</g>
			
				<ellipse transform="matrix(0.9576 -0.2881 0.2881 0.9576 -89.0857 228.4424)" class="st14" cx="731.4" cy="416.8" rx="5.5" ry="6.6"/>
		</g>
		<path class="st10" d="M783,558c1.6,14.6,107.2,105.1,112.4,114.7c-6,11.3-12.1,81-120.5,48c-68.2-18-115.6,44.1-154.2-6.2    c17.6-39,104.3-143.9,112.4-151.6C741.1,555.2,783,558,783,558z"/>
		<polygon class="st15" points="785,563 730,566 733,551 784,552   "/>
	</g>
	<circle class="st10" cx="732" cy="424" r="5"/>
</g>
</svg>