<svg xmlns="http://www.w3.org/2000/svg" xmlns:xlink="http://www.w3.org/1999/xlink" version="1.1" id="Layer_1" x="0px" y="0px" viewBox="0 0 595.3 582.4" style="enable-background:new 0 0 595.3 582.4;" xml:space="preserve">
<style xmlns="http://www.w3.org/2000/svg" type="text/css">
	.st0{fill:#F5F5F5;}
	.st1{opacity:0.78;fill:#FABB56;enable-background:new    ;}
	.st2{fill:#FFFFFF;}
	.st3{fill:#2A94F4;}
	.st4{fill:#FACBB6;}
	.st5{fill:#01384F;}
	.st6{fill:#F7C0BC;}
	.st7{fill:#A3C2E7;}
	.st8{fill:#69d30b;}
	.st9{fill:#F29993;}
	.st10{fill:#004970;}
	.st11{fill:#1C2949;}
	.st12{fill:#CDEAFB;}
	.st13{fill-rule:evenodd;clip-rule:evenodd;fill:#FFFFFF;}
</style>
<path xmlns="http://www.w3.org/2000/svg" class="st0" d="M123.3,95.9c52.7-48.8,137.2-54.6,199.1-5.3c33.9,26.9,52.6,68.5,87.5,94.7c39.2,29.3,84.8,56.6,107.8,101.7  c24.5,47.9,19.9,108.2-9.7,152.8c-36.1,54.3-102.8,50.8-163.8,60.1c-249.9,38-462.7-97.7-260.7-341.9  C100.2,137.5,105.9,112,123.3,95.9z"/>
<g xmlns="http://www.w3.org/2000/svg">
	<path class="st1" d="M132.4,379.7c-7.1-10.6,0.3-19,12.6-35.1c13.8-18.2,1.7-14.1-15-9.1c-32,9.6,21.4-35.6,14.9-52.1   c-6.5-16.5-27.6,10.7-14.9-29.1s4.1-50.2-7.3-52.5c-11.4-2.3-4.8,53.7-15.8,36c-11-17.7-35.7-9.4-13.4,25.6s13.4,71,5.4,58.9   c-0.9-1.3-14.5-49.7-31.8-31.8c-17.4,17.8,19.4,49.3,34.3,88.6s10.3,37.6,6.5,35.3c-3.8-2.3-23.4-53.6-33.9-26.3   c-7,18.1,8.1,14.4,32,74.2c0,0,0.8,75.8,16.6-3.4c0.7-3.3,1.3-6.5,1.9-9.6c16.3-41.7,21.8-50.7,30.2-73.4   C162.5,355.6,145.3,362.9,132.4,379.7z"/>
	<path class="st2" d="M142.4,381.7c-0.3-0.1-0.8,0.1-0.9,0.4c-0.1,0.3-11.6,31.6-17.3,43.9c0.1-0.8,0.1-1.6,0.1-2.4   c0.6-15.7-1.2-31.8-5.5-47.7c5.1-3,14.3-26.7,15.4-29.5c0.1-0.3-0.1-0.8-0.4-0.9c-0.3-0.1-0.8,0.1-0.9,0.4   c-3.9,10.2-11,26.2-14.5,28.6c-0.7-2.5-1.4-4.9-2.2-7.4c0,0,0,0,0-0.1c-0.3-0.8-0.5-1.5-0.8-2.3c-7.8-23-3.4-30.1,0.8-36.9   c3.1-5,6.3-10.3,4.9-21.1c12.2-7.2,17.3-21.5,17.5-22.1c0.1-0.3-0.1-0.8-0.4-0.9c-0.3-0.1-0.8,0.1-0.9,0.4   c-0.1,0.1-5,14.1-16.3,21.1c-0.2-1.2-0.5-2.6-0.8-4c-4.8-20.3-2.2-33.5,1.3-51.9c1.9-10.1,4.2-21.6,5.6-36.6c0.1-0.6-0.3-1.1-1-1.2   c-0.6-0.1-1.1,0.3-1.2,1c-1.4,14.9-3.7,26.3-5.6,36.4c-1.9,9.6-3.4,17.8-3.9,26.4c-13.8-14.8-21.2-36.8-21.3-37.1   c-0.1-0.3-0.6-0.6-0.9-0.5c-0.3,0.1-0.6,0.6-0.5,0.9c0.1,0.2,7.9,23.6,22.5,38.6c-0.2,7.4,0.5,15.2,2.7,24.4   c3.2,13.8-0.1,19.2-3.6,24.9c-4.5,7.3-9.2,14.8-1,38.8c0,0.1,0,0.1,0.1,0.1c-19.4-10.8-39.7-64.3-39.9-64.9   c-0.1-0.3-0.6-0.6-0.9-0.4c-0.3,0.1-0.6,0.6-0.4,0.9c0.9,2.3,21.5,57,41.9,66.3c11.4,35.1,8.8,63.5,4.6,81.3   c-5.9-16.5-33.6-51.8-34.9-53.4c-0.3-0.3-0.7-0.3-1-0.1c-0.3,0.3-0.3,0.7-0.1,1c0.3,0.4,31.8,40.5,35.3,55.2   c-1.7,6.7-3.7,11.6-4.9,14.5c-0.2,0.6,0,1.2,0.6,1.4c0.1,0.1,0.3,0.1,0.4,0.1c0.4,0,0.8-0.3,1-0.6c3.4-7.8,7.4-20.2,8.9-37.2   c4.8-8.8,18.3-45.5,18.9-47.1C142.9,382.3,142.7,381.9,142.4,381.7z"/>
	<g>
		<path class="st3" d="M94.7,450.4c0,0-13.4,53.2,18.8,53.7c0,0,30.5,6.5,24.8-52.1L94.7,450.4z"/>
	</g>
</g>
<polygon xmlns="http://www.w3.org/2000/svg" class="st4" points="260.6,495.1 244.7,495.1 242.2,458.2 258.2,458.2 "/>
<path xmlns="http://www.w3.org/2000/svg" d="M232,496.9l-10.5,5.5c-1.1,0.6-1.8,1.9-1.4,3.2c0.3,1,1.2,1.7,3.5,1.8c5.2,0.1,28.2-3.5,28.2-3.5v2.5l10.7-1.3  c0,0,0.7-12.8-2.5-14.7L232,496.9z"/>
<g xmlns="http://www.w3.org/2000/svg">
	<path class="st4" d="M248.5,485.4l-17.2,12c0,0,2,4.3,10.3,1.1c8.3-3.2,18.6-7.9,18.6-7.9l-1.8-6.8L248.5,485.4z"/>
</g>
<g xmlns="http://www.w3.org/2000/svg">
	<g>
		<path class="st5" d="M337.5,509.3c-1,0-1.9-0.8-2.1-1.8l-18.8-143.2h-31.3l-18.8,143.2c-0.1,1.1-1.2,1.9-2.3,1.8    c-1.1-0.1-1.9-1.2-1.8-2.3l19-145c0.1-1,1-1.8,2.1-1.8h34.9c1,0,1.9,0.8,2.1,1.8l19,145c0.1,1.1-0.7,2.2-1.8,2.3    C337.7,509.3,337.6,509.3,337.5,509.3z"/>
		<path class="st5" d="M377.9,507.3c-1,0-1.9-0.8-2.1-1.8L357,362.3h-31.3L307,505.5c-0.1,1.1-1.2,1.9-2.3,1.8    c-1.1-0.1-1.9-1.2-1.8-2.3l19-145c0.1-1,1-1.8,2.1-1.8h34.9c1,0,1.9,0.8,2.1,1.8l19,145c0.1,1.1-0.7,2.2-1.8,2.3    C378.1,507.3,378,507.3,377.9,507.3z"/>
		<path class="st3" d="M292.4,360.2h69.2c13.2,0,24-10.6,24.3-23.8l2.6-105.1c0.2-9.9-7.8-18-17.7-18h-43.4c-9,0-16.5,6.7-17.6,15.7    L292.4,360.2z"/>
		<path class="st3" d="M255.6,344h83v16.3h-90.4c-2.3,0-4.2-1.9-4.2-4.2v-0.4C244,349.2,249.2,344,255.6,344z"/>
	</g>
	<g>
		<path class="st6" d="M277.4,221.5c-0.2,1.2-0.4,2-0.6,3c-0.2,0.9-0.4,1.8-0.7,2.8c-0.5,1.8-1,3.6-1.5,5.4c-1,3.6-2.2,7-3.5,10.5    c-2.5,6.9-5.4,13.6-8.5,20.1l-1.2,2.5l-0.6,1.3c-0.3,0.6-0.6,1.2-1,1.8c-1.5,2.4-3.6,4.6-6.1,6c-2.4,1.5-5,2.3-7.3,2.7    c-2.4,0.4-4.7,0.4-6.8,0.3c-4.3-0.3-8.2-1.3-11.8-2.6c-1.8-0.6-3.6-1.4-5.3-2.2c-1.8-0.8-3.4-1.6-5.1-2.7l3.3-7.5    c6.3,1.5,13.3,2.7,18.9,2.1c2.8-0.2,5.1-1.1,6.2-2.1c0.5-0.5,0.8-1,1.2-1.7l1.6-4.1c2.5-6.5,4.8-12.9,7-19.5    c1.1-3.3,2.1-6.5,3-9.8c0.5-1.6,0.9-3.3,1.4-4.9l0.6-2.4l0.5-2.2L277.4,221.5z"/>
		<path class="st7" d="M266.3,201c-6.6,1.7-11.2,28.7-11.2,28.7l18.1,12.3c0,0,17.3-27.3,12.3-34.5C280.3,200,275.9,198.6,266.3,201    z"/>
		<path class="st6" d="M222.5,263.2l-9.2-9.3l-3.3,15.9c0,0,5.7,2.4,12.1,0.9L222.5,263.2z"/>
		<polygon class="st4" points="200.3,250.7 198.2,264.1 210,269.7 213.3,253.9   "/>
		<polygon class="st4" points="200.6,490.9 184.6,490.9 182.2,454 198.1,454   "/>
		<g>
			<polyline class="st4" points="199.4,473 198.1,454 182.2,454 183.5,473    "/>
		</g>
		<path class="st8" d="M266.3,201c0,0-7.6,2.7,7.6,96.2c25.7,0,52.2,0,64.7,0c-1.1-26.3-1.1-42.6,11.5-96.6c0,0-13.6-2.9-27.5-3.6    c-10.9-0.5-19.8-0.9-29.4,0C280.6,198.1,266.3,201,266.3,201z"/>
		<path class="st4" d="M319.7,163.8c-1.9,9.5-3.7,26.8,2.9,33.1c0,0-2.6,9.6-20.1,9.6c-19.3,0-9.2-9.6-9.2-9.6    c10.5-2.5,10.3-10.3,8.4-17.7L319.7,163.8z"/>
		<path class="st9" d="M312.4,170.1l-10.7,9.1c0.4,1.7,0.8,3.5,0.9,5.2c4-0.6,9.6-5,10-9.2C312.8,173.1,312.7,171.1,312.4,170.1z"/>
		<path class="st4" d="M318.7,137.5c3.4,15.4,5.2,21.9-0.2,31.9c-8.1,15-27.8,15.9-35.8,1.8c-7.2-12.7-11.6-35.8,1.5-46.1    C297,114.9,315.2,122.1,318.7,137.5z"/>
		<path class="st4" d="M326.5,150.9c0,3.3-1.5,6.2-3.5,8.1c-2.9,2.8-6.3,0.7-7.1-3.1c-0.7-3.4-0.1-8.9,3.6-10.3    C323.3,144.3,326.6,147.2,326.5,150.9z"/>
		<path class="st5" d="M273.9,297.2c0,0-106.8,9.9-105.8,58.5c1.1,50.5,11.9,113.7,11.9,113.7h22.1c0,0,1.9-53.4,2.5-103.2    C205,340.2,308.2,335,308.2,335l13.3-37.9H273.9z"/>
		<polygon class="st10" points="203.8,469.8 178.3,469.8 176.4,460.9 204.6,458.9   "/>
		<path class="st5" d="M291,297.2c0,0-69,22.9-70.8,51.2c-3.2,52.2,19.7,121,19.7,121h21.7c0,0-1.2-45.6-3.8-92.9    c-3.3-59.4,101.5-0.8,80.8-79.3H291z"/>
		<polygon class="st10" points="263.4,469.8 237.9,469.8 236.1,460.9 264.1,460.5   "/>
		<path class="st11" d="M278.5,300.7h1.8c0.3,0,0.6-0.2,0.6-0.4l-0.8-7.5c0-0.2-0.3-0.4-0.7-0.4h-1.8c-0.3,0-0.6,0.2-0.6,0.4    l0.8,7.5C277.9,300.5,278.2,300.7,278.5,300.7z"/>
		<path class="st11" d="M304.7,300.7h1.8c0.3,0,0.6-0.2,0.6-0.4l-0.8-7.5c0-0.2-0.3-0.4-0.7-0.4h-1.8c-0.3,0-0.6,0.2-0.6,0.4    l0.8,7.5C304,300.5,304.3,300.7,304.7,300.7z"/>
		<g>
			<g>
				<path class="st3" d="M259,307.8l-46.1-8.9l-22.7-113.3l46.6,9l22.6,112.7C259.5,307.7,259.3,307.9,259,307.8z"/>
				<g>
					<polygon class="st2" points="239.3,220.9 198.6,213 194.3,191.5 235,199.4      "/>
					<polygon class="st2" points="222.5,242 203.7,238.3 199.4,216.8 218.2,220.5      "/>
					<polygon class="st12" points="240.5,226.9 221.1,223.1 220.7,221 240.1,224.7      "/>
					<polygon class="st12" points="241.8,233.3 222.4,229.5 222,227.4 241.3,231.2      "/>
					<polygon class="st12" points="243.1,239.8 223.7,236 223.2,233.9 242.6,237.6      "/>
					<polygon class="st12" points="244.4,246.2 225,242.4 224.5,240.3 243.9,244.1      "/>
					<polygon class="st2" points="245.8,253.6 205.2,245.7 204.8,243.6 245.4,251.4      "/>
					<polygon class="st2" points="247.1,260 206.5,252.2 206.1,250 246.7,257.9      "/>
					<polygon class="st2" points="248.4,266.5 207.8,258.6 207.3,256.5 248,264.4      "/>
					<polygon class="st2" points="252.3,285.8 244.1,284.3 241.1,269.2 249.3,270.8      "/>
					<polygon class="st2" points="239,270.9 209.1,265.1 208.6,262.9 238.5,268.7      "/>
					<polygon class="st2" points="240.3,277.3 210.4,271.5 209.9,269.4 239.8,275.2      "/>
					<polygon class="st2" points="241.6,283.8 211.6,278 211.2,275.8 241.1,281.6      "/>
					<polygon class="st2" points="253.6,292.3 212.9,284.4 212.5,282.3 253.2,290.2      "/>
					<polygon class="st2" points="255.5,302.1 214.9,294.2 213.6,287.7 254.3,295.6      "/>
				</g>
			</g>
			<g>
				<path class="st3" d="M236,194.7l71.9-5.2l22.7,113.3l-71.5,5.2c-0.2,0-0.4-0.1-0.5-0.4L236,194.7z"/>
				<g>
					<polygon class="st2" points="258,280.8 320.6,276.3 324.9,297.7 262.3,302.3      "/>
					<polygon class="st2" points="286.6,253 315.6,250.9 319.9,272.4 290.9,274.5      "/>
					<polygon class="st2" points="256.8,274.8 286.7,272.7 287.1,274.8 257.2,277      "/>
					<polygon class="st2" points="255.5,268.4 285.4,266.2 285.8,268.3 255.9,270.5      "/>
					<polygon class="st2" points="254.2,261.9 284.1,259.8 284.5,261.9 254.6,264.1      "/>
					<polygon class="st2" points="252.9,255.5 282.8,253.3 283.2,255.4 253.3,257.6      "/>
					<polygon class="st2" points="251.4,248.1 314.1,243.5 314.5,245.7 251.9,250.2      "/>
					<polygon class="st2" points="250.1,241.7 312.8,237.1 313.2,239.2 250.6,243.8      "/>
					<polygon class="st2" points="248.8,235.2 311.5,230.6 311.9,232.8 249.3,237.3      "/>
					<polygon class="st2" points="245,215.9 257.5,214.9 260.5,230 248,230.9      "/>
					<polygon class="st2" points="264.1,227.6 310.2,224.2 310.6,226.3 264.5,229.7      "/>
					<polygon class="st2" points="262.8,221.1 308.9,217.7 309.3,219.9 263.2,223.2      "/>
					<polygon class="st2" points="261.5,214.7 307.6,211.3 308,213.4 261.9,216.8      "/>
				</g>
			</g>
		</g>
		<path class="st4" d="M366,264.9c-0.5-8.4-1.9-16.1-3.6-23.8c-1.7-7.7-3.7-15.1-6.1-22.7l-15.9,5c2,7,4.1,14.3,5.9,21.5    c1.8,7.2,3.5,14.4,4.3,21.2c0.1,1.2,0.3,2.4,0.3,3.5c-1-0.2-2.1-0.5-3.2-0.9c-3.1-1.1-6.4-2.6-9.6-4.3c-1.6-0.8-3.3-1.7-4.9-2.6    l-4.8-2.7l-5.1,6.4c5.7,5.7,11.6,10.7,19.2,14.9c1.9,1,4,2,6.6,2.7c1.3,0.3,2.7,0.6,4.5,0.6c0.8,0,1.8-0.1,2.9-0.3    c1.1-0.2,2.2-0.6,3.3-1.2c1.1-0.6,2.2-1.5,3.1-2.5c0.8-1,1.5-2.1,1.9-3c0.9-2,1.1-3.8,1.3-5.3C366.1,269.2,366,267.1,366,264.9z"/>
		<path class="st8" d="M350.1,200.5c6.5,2,14.3,24.3,14.3,24.3l-25.1,18c0,0-9.2-18.6-6.4-27C335.6,207.1,342.7,198.3,350.1,200.5z"/>
		<path class="st4" d="M330.8,261l-12.5-9.3l1.1,16.2c0,0,9.3,4.3,14.6,0.3L330.8,261z"/>
		<polygon class="st4" points="304.9,252.1 306.6,265.6 319.4,267.9 318.3,251.7   "/>
	</g>
</g>
<g xmlns="http://www.w3.org/2000/svg">
	<path class="st13" d="M257.3,210.4l-4.5,0.4c-0.1,0-0.2,0-0.2-0.1l-4.2-6.3c0,0.2,0,0.5,0,0.7c0,0.5,0,0.8,0,1.2v4.8   c0,0.1-0.1,0.2-0.3,0.2l-3.1,0.3c-0.1,0-0.3-0.1-0.3-0.2v-10.6c0-0.1,0.1-0.2,0.3-0.2l4.5-0.4c0.1,0,0.2,0,0.2,0.1l4.1,6.2   c0-0.2,0-0.4,0-0.5c0-0.4,0-0.8,0-1.2v-4.8c0-0.1,0.1-0.2,0.3-0.2l3.1-0.3c0.1,0,0.3,0.1,0.3,0.2v10.6   C257.6,210.3,257.5,210.4,257.3,210.4L257.3,210.4z M302.8,202.5c0,0.3-0.1,0.7-0.2,1c-0.1,0.3-0.3,0.6-0.5,0.9   c-0.2,0.3-0.5,0.6-0.8,0.8c-0.3,0.2-0.7,0.5-1.1,0.6l0,0c-0.4,0.2-0.8,0.3-1.3,0.5c-0.5,0.1-1,0.2-1.5,0.3   c-0.9,0.1-1.6,0.1-2.2,0.1c-0.3,0-0.6-0.1-0.9-0.1c-0.3-0.1-0.6-0.1-0.9-0.2c-0.1,0-0.1-0.1-0.1-0.2l0,0v-2.6   c0-0.1,0.1-0.2,0.3-0.2c0.1,0,0.1,0,0.1,0c0.3,0.1,0.6,0.2,1,0.3c0.3,0.1,0.7,0.1,1,0.2h0c0.3,0,0.7,0.1,1,0.1c0.3,0,0.6,0,0.9,0   c0.2,0,0.4-0.1,0.6-0.1c0.2,0,0.3-0.1,0.4-0.2c0.1-0.1,0.2-0.1,0.2-0.2c0-0.1,0.1-0.1,0.1-0.2c0-0.1,0-0.1,0-0.1c0,0,0-0.1-0.1-0.1   l0,0h0c0,0-0.1-0.1-0.1-0.1c-0.1,0-0.1-0.1-0.2-0.1c-0.1,0-0.3-0.1-0.6-0.2c-0.3-0.1-0.6-0.2-1.1-0.3l0,0c-0.4-0.1-0.8-0.2-1.1-0.4   c-0.3-0.1-0.6-0.3-0.8-0.4l0,0c-0.2-0.1-0.4-0.3-0.6-0.4c-0.2-0.2-0.3-0.3-0.4-0.5c-0.1-0.2-0.2-0.4-0.2-0.7   c-0.1-0.2-0.1-0.5-0.1-0.8c0-0.5,0.1-1,0.3-1.4c0.2-0.4,0.6-0.8,1-1.2c0.5-0.3,1-0.6,1.6-0.8c0.6-0.2,1.3-0.3,2.1-0.4   c0.7-0.1,1.4-0.1,2.1,0c0.7,0.1,1.4,0.2,2.1,0.4c0.1,0,0.2,0.2,0.1,0.3l-1.1,2.3c-0.1,0.1-0.2,0.2-0.3,0.2l0,0   c-0.6-0.2-1.1-0.3-1.6-0.3c-0.5-0.1-0.9-0.1-1.4,0c-0.2,0-0.4,0.1-0.5,0.1c-0.1,0-0.2,0.1-0.3,0.1l0,0c-0.1,0.1-0.1,0.1-0.2,0.2   c0,0.1,0,0.1,0,0.2c0,0.1,0,0.1,0.1,0.2c0,0.1,0.1,0.1,0.2,0.2c0.1,0.1,0.3,0.2,0.7,0.3c0.3,0.1,0.8,0.2,1.4,0.4l0,0   c0.6,0.2,1,0.3,1.4,0.5c0.4,0.2,0.7,0.4,1,0.6l0,0c0.2,0.2,0.4,0.5,0.5,0.8C302.8,201.8,302.8,202.1,302.8,202.5L302.8,202.5z    M287.5,207.4l-4.1,0.4c-0.1,0-0.2-0.1-0.3-0.2l-1.2-4.5c0-0.1-0.1-0.2-0.1-0.4c0-0.2-0.1-0.4-0.2-0.7l0-0.1c0,0.2-0.1,0.4-0.1,0.6   l0,0c0,0.2-0.1,0.4-0.2,0.6c0,0.2-0.2,0.9-0.6,2.2l-0.7,2.7c0,0.1-0.1,0.2-0.2,0.2l0,0l-4.1,0.4c-0.1,0-0.2-0.1-0.3-0.2l-3.2-10.3   c0-0.1,0-0.2,0.2-0.3c0,0,0,0,0.1,0l0,0l3.3-0.3c0.1,0,0.2,0.1,0.3,0.2l1.4,5.2l0,0c0.2,0.6,0.3,1.1,0.4,1.5c0-0.2,0.1-0.5,0.2-0.8   l0,0c0.1-0.4,0.2-0.8,0.3-1.2c0.1-0.4,0.2-0.7,0.3-1l1.1-4.1c0-0.1,0.1-0.2,0.2-0.2l3.2-0.3c0.1,0,0.2,0.1,0.3,0.2l1.1,3.9   c0.1,0.3,0.2,0.7,0.3,1c0.1,0.4,0.2,0.8,0.3,1.2c0.1,0.2,0.1,0.4,0.1,0.6c0.1-0.4,0.2-1,0.4-1.6l1.4-5.5c0-0.1,0.1-0.2,0.2-0.2v0   l3.3-0.3c0.1,0,0.3,0.1,0.3,0.2c0,0,0,0,0,0.1l-3.1,10.9C287.7,207.3,287.6,207.4,287.5,207.4L287.5,207.4L287.5,207.4z    M269.6,209.2l-7.6,0.8c-0.1,0-0.3-0.1-0.3-0.2v-10.6c0-0.1,0.1-0.2,0.3-0.2l7.6-0.8c0.1,0,0.3,0.1,0.3,0.2v2.3   c0,0.1-0.1,0.2-0.3,0.2l-3.9,0.4v1.2l3.6-0.4c0.1,0,0.3,0.1,0.3,0.2v2.3c0,0.1-0.1,0.2-0.3,0.2l-3.6,0.4v1.6l3.9-0.4   c0.1,0,0.3,0.1,0.3,0.2v2.3C269.8,209.1,269.7,209.2,269.6,209.2z"/>
</g>
<g xmlns="http://www.w3.org/2000/svg">
	
		<ellipse transform="matrix(0.8415 -0.5402 0.5402 0.8415 -9.6575 181.3285)" class="st5" cx="304.2" cy="107.1" rx="19.4" ry="19.6"/>
	
		<ellipse transform="matrix(0.8415 -0.5402 0.5402 0.8415 -23.339 182.6248)" class="st4" cx="299.6" cy="131.1" rx="16" ry="16.2"/>
</g>
<path xmlns="http://www.w3.org/2000/svg" class="st5" d="M313.4,123.5c0,0-5.6,24.8-38.3,22.6c0,0,1.3-24.5,17.1-26.5C292.2,119.6,307.7,117.3,313.4,123.5z"/>
<path xmlns="http://www.w3.org/2000/svg" class="st5" d="M305.2,120.8c0,0,1.1,17.1,15.1,26.9l2-8.1C322.3,139.6,324.5,122.5,305.2,120.8z"/>
<path xmlns="http://www.w3.org/2000/svg" d="M171.9,492.7l-10.5,5.5c-1.1,0.6-1.8,1.9-1.4,3.2c0.3,1,1.2,1.7,3.5,1.8c5.2,0.1,28.2-3.5,28.2-3.5v2.5l10.7-1.3  c0,0,0.7-12.8-2.5-14.7L171.9,492.7z"/>
<g xmlns="http://www.w3.org/2000/svg">
	<path class="st4" d="M188.4,481.2l-17.2,12c0,0,2,4.3,10.3,1.1c8.3-3.2,18.6-7.9,18.6-7.9l-1.8-6.8L188.4,481.2z"/>
</g>
</svg>